<?xml version="1.0" encoding="UTF-8"?><svg xmlns="http://www.w3.org/2000/svg" xmlns:xlink="http://www.w3.org/1999/xlink" fill-opacity="1" color-rendering="auto" color-interpolation="auto" stroke="black" text-rendering="auto" stroke-linecap="square" width="582" stroke-miterlimit="10" stroke-opacity="1" shape-rendering="auto" fill="black" stroke-dasharray="none" font-weight="normal" stroke-width="1" height="903" font-family="'Dialog'" font-style="normal" stroke-linejoin="miter" font-size="12" stroke-dashoffset="0" image-rendering="auto">
  <!--Generated by ySVG 2.5-->
  <defs id="genericDefs"/>
  <g>
    <defs id="defs1">
      <linearGradient x1="79.9726" gradientUnits="userSpaceOnUse" x2="79.9726" y1="168.3828" y2="204.8828" id="linearGradient1" spreadMethod="pad">
        <stop stop-opacity="1" stop-color="rgb(255,230,191)" offset="0%"/>
        <stop stop-opacity="1" stop-color="rgb(255,173,51)" offset="100%"/>
      </linearGradient>
      <linearGradient x1="79.9726" gradientUnits="userSpaceOnUse" x2="79.9726" y1="216.6133" y2="253.1133" id="linearGradient2" spreadMethod="pad">
        <stop stop-opacity="1" stop-color="rgb(255,230,191)" offset="0%"/>
        <stop stop-opacity="1" stop-color="rgb(255,173,51)" offset="100%"/>
      </linearGradient>
      <linearGradient x1="67.4726" gradientUnits="userSpaceOnUse" x2="67.4726" y1="301.3047" y2="337.8047" id="linearGradient3" spreadMethod="pad">
        <stop stop-opacity="1" stop-color="rgb(255,230,191)" offset="0%"/>
        <stop stop-opacity="1" stop-color="rgb(255,173,51)" offset="100%"/>
      </linearGradient>
      <linearGradient x1="67.4726" gradientUnits="userSpaceOnUse" x2="67.4726" y1="355.3047" y2="391.8047" id="linearGradient4" spreadMethod="pad">
        <stop stop-opacity="1" stop-color="rgb(255,230,191)" offset="0%"/>
        <stop stop-opacity="1" stop-color="rgb(255,173,51)" offset="100%"/>
      </linearGradient>
      <linearGradient x1="66.4726" gradientUnits="userSpaceOnUse" x2="66.4726" y1="440.7656" y2="477.2656" id="linearGradient5" spreadMethod="pad">
        <stop stop-opacity="1" stop-color="rgb(255,230,191)" offset="0%"/>
        <stop stop-opacity="1" stop-color="rgb(255,173,51)" offset="100%"/>
      </linearGradient>
      <linearGradient x1="66.4726" gradientUnits="userSpaceOnUse" x2="66.4726" y1="497.8335" y2="534.3335" id="linearGradient6" spreadMethod="pad">
        <stop stop-opacity="1" stop-color="rgb(255,230,191)" offset="0%"/>
        <stop stop-opacity="1" stop-color="rgb(255,173,51)" offset="100%"/>
      </linearGradient>
      <linearGradient x1="66.4726" gradientUnits="userSpaceOnUse" x2="66.4726" y1="554.9014" y2="591.4014" id="linearGradient7" spreadMethod="pad">
        <stop stop-opacity="1" stop-color="rgb(255,230,191)" offset="0%"/>
        <stop stop-opacity="1" stop-color="rgb(255,173,51)" offset="100%"/>
      </linearGradient>
      <linearGradient x1="66.4726" gradientUnits="userSpaceOnUse" x2="66.4726" y1="611.9693" y2="648.4693" id="linearGradient8" spreadMethod="pad">
        <stop stop-opacity="1" stop-color="rgb(255,230,191)" offset="0%"/>
        <stop stop-opacity="1" stop-color="rgb(255,173,51)" offset="100%"/>
      </linearGradient>
      <linearGradient x1="66.4726" gradientUnits="userSpaceOnUse" x2="66.4726" y1="662.7656" y2="699.2656" id="linearGradient9" spreadMethod="pad">
        <stop stop-opacity="1" stop-color="rgb(255,230,191)" offset="0%"/>
        <stop stop-opacity="1" stop-color="rgb(255,173,51)" offset="100%"/>
      </linearGradient>
      <linearGradient x1="66.4726" gradientUnits="userSpaceOnUse" x2="66.4726" y1="800.2944" y2="836.7944" id="linearGradient10" spreadMethod="pad">
        <stop stop-opacity="1" stop-color="rgb(255,230,191)" offset="0%"/>
        <stop stop-opacity="1" stop-color="rgb(255,173,51)" offset="100%"/>
      </linearGradient>
      <linearGradient x1="66.4726" gradientUnits="userSpaceOnUse" x2="66.4726" y1="753.2266" y2="789.7266" id="linearGradient11" spreadMethod="pad">
        <stop stop-opacity="1" stop-color="rgb(255,230,191)" offset="0%"/>
        <stop stop-opacity="1" stop-color="rgb(255,173,51)" offset="100%"/>
      </linearGradient>
      <linearGradient x1="339.5432" gradientUnits="userSpaceOnUse" x2="339.5432" y1="94.6451" y2="127.1451" id="linearGradient12" spreadMethod="pad">
        <stop stop-opacity="1" stop-color="rgb(255,230,191)" offset="0%"/>
        <stop stop-opacity="1" stop-color="rgb(255,173,51)" offset="100%"/>
      </linearGradient>
      <linearGradient x1="339.5432" gradientUnits="userSpaceOnUse" x2="339.5432" y1="526.2819" y2="558.7819" id="linearGradient13" spreadMethod="pad">
        <stop stop-opacity="1" stop-color="rgb(255,230,191)" offset="0%"/>
        <stop stop-opacity="1" stop-color="rgb(255,173,51)" offset="100%"/>
      </linearGradient>
      <linearGradient x1="339.5432" gradientUnits="userSpaceOnUse" x2="339.5432" y1="583.3498" y2="615.8498" id="linearGradient14" spreadMethod="pad">
        <stop stop-opacity="1" stop-color="rgb(255,230,191)" offset="0%"/>
        <stop stop-opacity="1" stop-color="rgb(255,173,51)" offset="100%"/>
      </linearGradient>
      <linearGradient x1="339.5432" gradientUnits="userSpaceOnUse" x2="339.5432" y1="404.3047" y2="436.8047" id="linearGradient15" spreadMethod="pad">
        <stop stop-opacity="1" stop-color="rgb(255,230,191)" offset="0%"/>
        <stop stop-opacity="1" stop-color="rgb(255,173,51)" offset="100%"/>
      </linearGradient>
      <linearGradient x1="348.6605" gradientUnits="userSpaceOnUse" x2="348.6605" y1="885.7924" y2="918.2924" id="linearGradient16" spreadMethod="pad">
        <stop stop-opacity="1" stop-color="rgb(255,230,191)" offset="0%"/>
        <stop stop-opacity="1" stop-color="rgb(255,173,51)" offset="100%"/>
      </linearGradient>
      <clipPath clipPathUnits="userSpaceOnUse" id="clipPath1">
        <path d="M0 0 L582 0 L582 903 L0 903 L0 0 Z"/>
      </clipPath>
      <clipPath clipPathUnits="userSpaceOnUse" id="clipPath2">
        <path d="M-15 44 L567 44 L567 947 L-15 947 L-15 44 Z"/>
      </clipPath>
    </defs>
    <g fill="rgb(245,245,245)" text-rendering="optimizeQuality" shape-rendering="geometricPrecision" transform="matrix(1,0,0,1,15,-44)" stroke="rgb(245,245,245)">
      <rect x="0" y="130.3251" clip-path="url(#clipPath2)" width="323.5432" rx="4" ry="4" height="741.9014" stroke="none"/>
    </g>
    <g fill="rgb(235,235,235)" text-rendering="optimizeQuality" shape-rendering="geometricPrecision" transform="matrix(1,0,0,1,15,-44)" stroke="rgb(235,235,235)">
      <rect x="0" width="323.5432" height="21.4609" y="130.3251" clip-path="url(#clipPath2)" stroke="none"/>
    </g>
    <g font-size="15" stroke-linecap="butt" transform="matrix(1,0,0,1,15,-44)" text-rendering="optimizeQuality" font-family="sans-serif" shape-rendering="geometricPrecision" stroke-miterlimit="1.45">
      <text x="289.8953" xml:space="preserve" y="146.2485" clip-path="url(#clipPath2)" stroke="none">GPU</text>
      <rect x="0" y="130.3251" clip-path="url(#clipPath2)" fill="none" width="323.5432" stroke-dasharray="6,2" rx="4" ry="4" height="741.9014"/>
    </g>
    <g fill="rgb(255,153,0)" text-rendering="optimizeQuality" shape-rendering="geometricPrecision" transform="matrix(1,0,0,1,15,-44)" stroke="rgb(255,153,0)">
      <path d="M79.9726 185.3828 L267.4726 185.3828 L267.4726 200.3828 Q267.4726 203.3828 264.4726 203.3828 L82.9726 203.3828 Q79.9726 203.3828 79.9726 200.3828 Z" clip-path="url(#clipPath2)" stroke="none"/>
      <path fill="url(#linearGradient1)" d="M79.9726 172.3828 Q79.9726 169.3828 82.9726 169.3828 L264.4726 169.3828 Q267.4726 169.3828 267.4726 172.3828 L267.4726 186.3828 L79.9726 186.3828 Z" clip-path="url(#clipPath2)" stroke="none"/>
      <path fill="none" stroke-width="2" d="M81.9726 172.3828 Q81.9726 171.3828 82.9726 171.3828 L264.4726 171.3828 Q265.4726 171.3828 265.4726 172.3828 L265.4726 200.3828 Q265.4726 201.3828 264.4726 201.3828 L82.9726 201.3828 Q81.9726 201.3828 81.9726 200.3828 Z" clip-path="url(#clipPath2)" stroke="rgb(255,240,217)"/>
      <path fill="none" d="M81.9726 172.3828 Q81.9726 171.3828 82.9726 171.3828 L264.4726 171.3828 Q265.4726 171.3828 265.4726 172.3828 L265.4726 200.3828 Q265.4726 201.3828 264.4726 201.3828 L82.9726 201.3828 Q81.9726 201.3828 81.9726 200.3828 Z" clip-path="url(#clipPath2)"/>
    </g>
    <g text-rendering="optimizeQuality" stroke-miterlimit="1.45" shape-rendering="geometricPrecision" font-family="sans-serif" transform="matrix(1,0,0,1,15,-44)" stroke-linecap="butt">
      <text x="138.789" xml:space="preserve" y="190.5371" clip-path="url(#clipPath2)" stroke="none">RGB to YUV</text>
    </g>
    <g fill="rgb(255,153,0)" text-rendering="optimizeQuality" shape-rendering="geometricPrecision" transform="matrix(1,0,0,1,15,-44)" stroke="rgb(255,153,0)">
      <path d="M79.9726 233.6133 L267.4726 233.6133 L267.4726 248.6133 Q267.4726 251.6133 264.4726 251.6133 L82.9726 251.6133 Q79.9726 251.6133 79.9726 248.6133 Z" clip-path="url(#clipPath2)" stroke="none"/>
      <path fill="url(#linearGradient2)" d="M79.9726 220.6133 Q79.9726 217.6133 82.9726 217.6133 L264.4726 217.6133 Q267.4726 217.6133 267.4726 220.6133 L267.4726 234.6133 L79.9726 234.6133 Z" clip-path="url(#clipPath2)" stroke="none"/>
      <path fill="none" stroke-width="2" d="M81.9726 220.6133 Q81.9726 219.6133 82.9726 219.6133 L264.4726 219.6133 Q265.4726 219.6133 265.4726 220.6133 L265.4726 248.6133 Q265.4726 249.6133 264.4726 249.6133 L82.9726 249.6133 Q81.9726 249.6133 81.9726 248.6133 Z" clip-path="url(#clipPath2)" stroke="rgb(255,240,217)"/>
      <path fill="none" d="M81.9726 220.6133 Q81.9726 219.6133 82.9726 219.6133 L264.4726 219.6133 Q265.4726 219.6133 265.4726 220.6133 L265.4726 248.6133 Q265.4726 249.6133 264.4726 249.6133 L82.9726 249.6133 Q81.9726 249.6133 81.9726 248.6133 Z" clip-path="url(#clipPath2)"/>
    </g>
    <g text-rendering="optimizeQuality" stroke-miterlimit="1.45" shape-rendering="geometricPrecision" font-family="sans-serif" transform="matrix(1,0,0,1,15,-44)" stroke-linecap="butt">
      <text x="111.3818" xml:space="preserve" y="238.7676" clip-path="url(#clipPath2)" stroke="none">Grayscale Extraction</text>
    </g>
    <g text-rendering="optimizeQuality" stroke-miterlimit="1.45" shape-rendering="geometricPrecision" transform="matrix(1,0,0,1,15,-44)" stroke-linecap="butt">
      <path fill="none" d="M173.7226 203.3896 L173.7226 209.5855" clip-path="url(#clipPath2)"/>
      <path d="M173.7226 217.5855 L178.7226 205.5855 L173.7226 208.5855 L168.7226 205.5855 Z" clip-path="url(#clipPath2)" stroke="none"/>
    </g>
    <g fill="rgb(225,225,225)" text-rendering="optimizeQuality" shape-rendering="geometricPrecision" transform="matrix(1,0,0,1,15,-44)" stroke="rgb(225,225,225)">
      <rect x="51.4726" y="265.8438" clip-path="url(#clipPath2)" width="244.5" rx="4" ry="4" height="139.4609" stroke="none"/>
      <rect x="51.4726" y="265.8438" clip-path="url(#clipPath2)" fill="rgb(235,235,235)" width="244.5" height="21.4609" stroke="none"/>
    </g>
    <g font-size="15" stroke-linecap="butt" transform="matrix(1,0,0,1,15,-44)" text-rendering="optimizeQuality" font-family="sans-serif" shape-rendering="geometricPrecision" stroke-miterlimit="1.45">
      <text x="195.5717" xml:space="preserve" y="281.7671" clip-path="url(#clipPath2)" stroke="none">Line Drawing</text>
      <rect x="51.4726" y="265.8438" clip-path="url(#clipPath2)" fill="none" width="244.5" stroke-dasharray="6,2" rx="4" ry="4" height="139.4609"/>
    </g>
    <g fill="rgb(255,153,0)" text-rendering="optimizeQuality" shape-rendering="geometricPrecision" transform="matrix(1,0,0,1,15,-44)" stroke="rgb(255,153,0)">
      <path d="M67.4726 318.3047 L279.9726 318.3047 L279.9726 333.3047 Q279.9726 336.3047 276.9726 336.3047 L70.4726 336.3047 Q67.4726 336.3047 67.4726 333.3047 Z" clip-path="url(#clipPath2)" stroke="none"/>
      <path fill="url(#linearGradient3)" d="M67.4726 305.3047 Q67.4726 302.3047 70.4726 302.3047 L276.9726 302.3047 Q279.9726 302.3047 279.9726 305.3047 L279.9726 319.3047 L67.4726 319.3047 Z" clip-path="url(#clipPath2)" stroke="none"/>
      <path fill="none" stroke-width="2" d="M69.4726 305.3047 Q69.4726 304.3047 70.4726 304.3047 L276.9726 304.3047 Q277.9726 304.3047 277.9726 305.3047 L277.9726 333.3047 Q277.9726 334.3047 276.9726 334.3047 L70.4726 334.3047 Q69.4726 334.3047 69.4726 333.3047 Z" clip-path="url(#clipPath2)" stroke="rgb(255,240,217)"/>
      <path fill="none" d="M69.4726 305.3047 Q69.4726 304.3047 70.4726 304.3047 L276.9726 304.3047 Q277.9726 304.3047 277.9726 305.3047 L277.9726 333.3047 Q277.9726 334.3047 276.9726 334.3047 L70.4726 334.3047 Q69.4726 334.3047 69.4726 333.3047 Z" clip-path="url(#clipPath2)"/>
    </g>
    <g text-rendering="optimizeQuality" stroke-miterlimit="1.45" shape-rendering="geometricPrecision" font-family="sans-serif" transform="matrix(1,0,0,1,15,-44)" stroke-linecap="butt">
      <text x="147.6074" xml:space="preserve" y="316.4746" clip-path="url(#clipPath2)" stroke="none">Gradient</text>
      <text x="140.2509" xml:space="preserve" y="330.4434" clip-path="url(#clipPath2)" stroke="none">Calculation</text>
    </g>
    <g fill="rgb(255,153,0)" text-rendering="optimizeQuality" shape-rendering="geometricPrecision" transform="matrix(1,0,0,1,15,-44)" stroke="rgb(255,153,0)">
      <path d="M67.4726 372.3047 L279.9726 372.3047 L279.9726 387.3047 Q279.9726 390.3047 276.9726 390.3047 L70.4726 390.3047 Q67.4726 390.3047 67.4726 387.3047 Z" clip-path="url(#clipPath2)" stroke="none"/>
      <path fill="url(#linearGradient4)" d="M67.4726 359.3047 Q67.4726 356.3047 70.4726 356.3047 L276.9726 356.3047 Q279.9726 356.3047 279.9726 359.3047 L279.9726 373.3047 L67.4726 373.3047 Z" clip-path="url(#clipPath2)" stroke="none"/>
      <path fill="none" stroke-width="2" d="M69.4726 359.3047 Q69.4726 358.3047 70.4726 358.3047 L276.9726 358.3047 Q277.9726 358.3047 277.9726 359.3047 L277.9726 387.3047 Q277.9726 388.3047 276.9726 388.3047 L70.4726 388.3047 Q69.4726 388.3047 69.4726 387.3047 Z" clip-path="url(#clipPath2)" stroke="rgb(255,240,217)"/>
      <path fill="none" d="M69.4726 359.3047 Q69.4726 358.3047 70.4726 358.3047 L276.9726 358.3047 Q277.9726 358.3047 277.9726 359.3047 L277.9726 387.3047 Q277.9726 388.3047 276.9726 388.3047 L70.4726 388.3047 Q69.4726 388.3047 69.4726 387.3047 Z" clip-path="url(#clipPath2)"/>
    </g>
    <g text-rendering="optimizeQuality" stroke-miterlimit="1.45" shape-rendering="geometricPrecision" font-family="sans-serif" transform="matrix(1,0,0,1,15,-44)" stroke-linecap="butt">
      <text x="137.8749" xml:space="preserve" y="370.4746" clip-path="url(#clipPath2)" stroke="none">Convolution</text>
      <text x="158.4267" xml:space="preserve" y="384.4434" clip-path="url(#clipPath2)" stroke="none">Filter</text>
    </g>
    <g text-rendering="optimizeQuality" stroke-miterlimit="1.45" shape-rendering="geometricPrecision" transform="matrix(1,0,0,1,15,-44)" stroke-linecap="butt">
      <path fill="none" d="M173.7226 251.6095 L173.7226 294.2817" clip-path="url(#clipPath2)"/>
      <path d="M173.7226 302.2817 L178.7226 290.2817 L173.7226 293.2817 L168.7226 290.2817 Z" clip-path="url(#clipPath2)" stroke="none"/>
      <path fill="none" d="M173.7226 336.3047 L173.7226 348.2656" clip-path="url(#clipPath2)"/>
      <path d="M173.7226 356.2656 L178.7226 344.2656 L173.7226 347.2656 L168.7226 344.2656 Z" clip-path="url(#clipPath2)" stroke="none"/>
    </g>
    <g fill="rgb(225,225,225)" text-rendering="optimizeQuality" shape-rendering="geometricPrecision" transform="matrix(1,0,0,1,15,-44)" stroke="rgb(225,225,225)">
      <rect x="51.4726" y="405.3047" clip-path="url(#clipPath2)" width="244.5" rx="4" ry="4" height="312.4609" stroke="none"/>
      <rect x="51.4726" y="405.3047" clip-path="url(#clipPath2)" fill="rgb(235,235,235)" width="244.5" height="21.4609" stroke="none"/>
    </g>
    <g font-size="15" stroke-linecap="butt" transform="matrix(1,0,0,1,15,-44)" text-rendering="optimizeQuality" font-family="sans-serif" shape-rendering="geometricPrecision" stroke-miterlimit="1.45">
      <text x="189.7563" xml:space="preserve" y="421.228" clip-path="url(#clipPath2)" stroke="none">Tone Drawing</text>
      <rect x="51.4726" y="405.3047" clip-path="url(#clipPath2)" fill="none" width="244.5" stroke-dasharray="6,2" rx="4" ry="4" height="312.4609"/>
    </g>
    <g fill="rgb(255,153,0)" text-rendering="optimizeQuality" shape-rendering="geometricPrecision" transform="matrix(1,0,0,1,15,-44)" stroke="rgb(255,153,0)">
      <path d="M66.4726 457.7656 L278.9726 457.7656 L278.9726 472.7656 Q278.9726 475.7656 275.9726 475.7656 L69.4726 475.7656 Q66.4726 475.7656 66.4726 472.7656 Z" clip-path="url(#clipPath2)" stroke="none"/>
      <path fill="url(#linearGradient5)" d="M66.4726 444.7656 Q66.4726 441.7656 69.4726 441.7656 L275.9726 441.7656 Q278.9726 441.7656 278.9726 444.7656 L278.9726 458.7656 L66.4726 458.7656 Z" clip-path="url(#clipPath2)" stroke="none"/>
      <path fill="none" stroke-width="2" d="M68.4726 444.7656 Q68.4726 443.7656 69.4726 443.7656 L275.9726 443.7656 Q276.9726 443.7656 276.9726 444.7656 L276.9726 472.7656 Q276.9726 473.7656 275.9726 473.7656 L69.4726 473.7656 Q68.4726 473.7656 68.4726 472.7656 Z" clip-path="url(#clipPath2)" stroke="rgb(255,240,217)"/>
      <path fill="none" d="M68.4726 444.7656 Q68.4726 443.7656 69.4726 443.7656 L275.9726 443.7656 Q276.9726 443.7656 276.9726 444.7656 L276.9726 472.7656 Q276.9726 473.7656 275.9726 473.7656 L69.4726 473.7656 Q68.4726 473.7656 68.4726 472.7656 Z" clip-path="url(#clipPath2)"/>
    </g>
    <g text-rendering="optimizeQuality" stroke-miterlimit="1.45" shape-rendering="geometricPrecision" font-family="sans-serif" transform="matrix(1,0,0,1,15,-44)" stroke-linecap="butt">
      <text x="141.5976" xml:space="preserve" y="455.9355" clip-path="url(#clipPath2)" stroke="none">Histogram</text>
      <text x="139.2509" xml:space="preserve" y="469.9043" clip-path="url(#clipPath2)" stroke="none">Calculation</text>
    </g>
    <g fill="rgb(255,153,0)" text-rendering="optimizeQuality" shape-rendering="geometricPrecision" transform="matrix(1,0,0,1,15,-44)" stroke="rgb(255,153,0)">
      <path d="M66.4726 514.8335 L278.9726 514.8335 L278.9726 529.8335 Q278.9726 532.8335 275.9726 532.8335 L69.4726 532.8335 Q66.4726 532.8335 66.4726 529.8335 Z" clip-path="url(#clipPath2)" stroke="none"/>
      <path fill="url(#linearGradient6)" d="M66.4726 501.8335 Q66.4726 498.8335 69.4726 498.8335 L275.9726 498.8335 Q278.9726 498.8335 278.9726 501.8335 L278.9726 515.8335 L66.4726 515.8335 Z" clip-path="url(#clipPath2)" stroke="none"/>
      <path fill="none" stroke-width="2" d="M68.4726 501.8335 Q68.4726 500.8335 69.4726 500.8335 L275.9726 500.8335 Q276.9726 500.8335 276.9726 501.8335 L276.9726 529.8335 Q276.9726 530.8335 275.9726 530.8335 L69.4726 530.8335 Q68.4726 530.8335 68.4726 529.8335 Z" clip-path="url(#clipPath2)" stroke="rgb(255,240,217)"/>
      <path fill="none" d="M68.4726 501.8335 Q68.4726 500.8335 69.4726 500.8335 L275.9726 500.8335 Q276.9726 500.8335 276.9726 501.8335 L276.9726 529.8335 Q276.9726 530.8335 275.9726 530.8335 L69.4726 530.8335 Q68.4726 530.8335 68.4726 529.8335 Z" clip-path="url(#clipPath2)"/>
    </g>
    <g text-rendering="optimizeQuality" stroke-miterlimit="1.45" shape-rendering="geometricPrecision" font-family="sans-serif" transform="matrix(1,0,0,1,15,-44)" stroke-linecap="butt">
      <text x="141.5976" xml:space="preserve" y="513.0034" clip-path="url(#clipPath2)" stroke="none">Histogram</text>
      <text x="146.9736" xml:space="preserve" y="526.9722" clip-path="url(#clipPath2)" stroke="none">Mapping</text>
    </g>
    <g fill="rgb(255,153,0)" text-rendering="optimizeQuality" shape-rendering="geometricPrecision" transform="matrix(1,0,0,1,15,-44)" stroke="rgb(255,153,0)">
      <path d="M66.4726 571.9014 L278.9726 571.9014 L278.9726 586.9014 Q278.9726 589.9014 275.9726 589.9014 L69.4726 589.9014 Q66.4726 589.9014 66.4726 586.9014 Z" clip-path="url(#clipPath2)" stroke="none"/>
      <path fill="url(#linearGradient7)" d="M66.4726 558.9014 Q66.4726 555.9014 69.4726 555.9014 L275.9726 555.9014 Q278.9726 555.9014 278.9726 558.9014 L278.9726 572.9014 L66.4726 572.9014 Z" clip-path="url(#clipPath2)" stroke="none"/>
      <path fill="none" stroke-width="2" d="M68.4726 558.9014 Q68.4726 557.9014 69.4726 557.9014 L275.9726 557.9014 Q276.9726 557.9014 276.9726 558.9014 L276.9726 586.9014 Q276.9726 587.9014 275.9726 587.9014 L69.4726 587.9014 Q68.4726 587.9014 68.4726 586.9014 Z" clip-path="url(#clipPath2)" stroke="rgb(255,240,217)"/>
      <path fill="none" d="M68.4726 558.9014 Q68.4726 557.9014 69.4726 557.9014 L275.9726 557.9014 Q276.9726 557.9014 276.9726 558.9014 L276.9726 586.9014 Q276.9726 587.9014 275.9726 587.9014 L69.4726 587.9014 Q68.4726 587.9014 68.4726 586.9014 Z" clip-path="url(#clipPath2)"/>
    </g>
    <g text-rendering="optimizeQuality" stroke-miterlimit="1.45" shape-rendering="geometricPrecision" font-family="sans-serif" transform="matrix(1,0,0,1,15,-44)" stroke-linecap="butt">
      <text x="137.124" xml:space="preserve" y="570.0714" clip-path="url(#clipPath2)" stroke="none">Logarithmic</text>
      <text x="150.6767" xml:space="preserve" y="584.0401" clip-path="url(#clipPath2)" stroke="none">Fuction</text>
    </g>
    <g fill="rgb(255,153,0)" text-rendering="optimizeQuality" shape-rendering="geometricPrecision" transform="matrix(1,0,0,1,15,-44)" stroke="rgb(255,153,0)">
      <path d="M66.4726 628.9693 L278.9726 628.9693 L278.9726 643.9693 Q278.9726 646.9693 275.9726 646.9693 L69.4726 646.9693 Q66.4726 646.9693 66.4726 643.9693 Z" clip-path="url(#clipPath2)" stroke="none"/>
      <path fill="url(#linearGradient8)" d="M66.4726 615.9693 Q66.4726 612.9693 69.4726 612.9693 L275.9726 612.9693 Q278.9726 612.9693 278.9726 615.9693 L278.9726 629.9693 L66.4726 629.9693 Z" clip-path="url(#clipPath2)" stroke="none"/>
      <path fill="none" stroke-width="2" d="M68.4726 615.9693 Q68.4726 614.9693 69.4726 614.9693 L275.9726 614.9693 Q276.9726 614.9693 276.9726 615.9693 L276.9726 643.9693 Q276.9726 644.9693 275.9726 644.9693 L69.4726 644.9693 Q68.4726 644.9693 68.4726 643.9693 Z" clip-path="url(#clipPath2)" stroke="rgb(255,240,217)"/>
      <path fill="none" d="M68.4726 615.9693 Q68.4726 614.9693 69.4726 614.9693 L275.9726 614.9693 Q276.9726 614.9693 276.9726 615.9693 L276.9726 643.9693 Q276.9726 644.9693 275.9726 644.9693 L69.4726 644.9693 Q68.4726 644.9693 68.4726 643.9693 Z" clip-path="url(#clipPath2)"/>
    </g>
    <g text-rendering="optimizeQuality" stroke-miterlimit="1.45" shape-rendering="geometricPrecision" font-family="sans-serif" transform="matrix(1,0,0,1,15,-44)" stroke-linecap="butt">
      <text x="149.5019" xml:space="preserve" y="627.1392" clip-path="url(#clipPath2)" stroke="none">Texture</text>
      <text x="139.2509" xml:space="preserve" y="641.108" clip-path="url(#clipPath2)" stroke="none">Calculation</text>
    </g>
    <g fill="rgb(255,153,0)" text-rendering="optimizeQuality" shape-rendering="geometricPrecision" transform="matrix(1,0,0,1,15,-44)" stroke="rgb(255,153,0)">
      <path d="M66.4726 679.7656 L278.9726 679.7656 L278.9726 694.7656 Q278.9726 697.7656 275.9726 697.7656 L69.4726 697.7656 Q66.4726 697.7656 66.4726 694.7656 Z" clip-path="url(#clipPath2)" stroke="none"/>
      <path fill="url(#linearGradient9)" d="M66.4726 666.7656 Q66.4726 663.7656 69.4726 663.7656 L275.9726 663.7656 Q278.9726 663.7656 278.9726 666.7656 L278.9726 680.7656 L66.4726 680.7656 Z" clip-path="url(#clipPath2)" stroke="none"/>
      <path fill="none" stroke-width="2" d="M68.4726 666.7656 Q68.4726 665.7656 69.4726 665.7656 L275.9726 665.7656 Q276.9726 665.7656 276.9726 666.7656 L276.9726 694.7656 Q276.9726 695.7656 275.9726 695.7656 L69.4726 695.7656 Q68.4726 695.7656 68.4726 694.7656 Z" clip-path="url(#clipPath2)" stroke="rgb(255,240,217)"/>
      <path fill="none" d="M68.4726 666.7656 Q68.4726 665.7656 69.4726 665.7656 L275.9726 665.7656 Q276.9726 665.7656 276.9726 666.7656 L276.9726 694.7656 Q276.9726 695.7656 275.9726 695.7656 L69.4726 695.7656 Q68.4726 695.7656 68.4726 694.7656 Z" clip-path="url(#clipPath2)"/>
    </g>
    <g text-rendering="optimizeQuality" stroke-miterlimit="1.45" shape-rendering="geometricPrecision" font-family="sans-serif" transform="matrix(1,0,0,1,15,-44)" stroke-linecap="butt">
      <text x="149.5019" xml:space="preserve" y="677.9355" clip-path="url(#clipPath2)" stroke="none">Texture</text>
      <text x="141.8144" xml:space="preserve" y="691.9043" clip-path="url(#clipPath2)" stroke="none">Rendering</text>
    </g>
    <g text-rendering="optimizeQuality" stroke-miterlimit="1.45" shape-rendering="geometricPrecision" transform="matrix(1,0,0,1,15,-44)" stroke-linecap="butt">
      <path fill="none" d="M267.4948 234.6133 L311.9345 234.6133 L311.9345 458.7656 L287.0008 458.7656" clip-path="url(#clipPath2)"/>
      <path d="M279.0008 458.7656 L291.0008 463.7656 L288.0008 458.7656 L291.0008 453.7656 Z" clip-path="url(#clipPath2)" stroke="none"/>
      <path fill="none" d="M172.7226 475.7913 L172.7226 490.8234" clip-path="url(#clipPath2)"/>
      <path d="M172.7226 498.8234 L177.7226 486.8234 L172.7226 489.8234 L167.7226 486.8234 Z" clip-path="url(#clipPath2)" stroke="none"/>
      <path fill="none" d="M172.7226 532.8335 L172.7226 547.8564" clip-path="url(#clipPath2)"/>
      <path d="M172.7226 555.8564 L177.7226 543.8564 L172.7226 546.8564 L167.7226 543.8564 Z" clip-path="url(#clipPath2)" stroke="none"/>
      <path fill="none" d="M172.7226 589.9271 L172.7226 604.9592" clip-path="url(#clipPath2)"/>
      <path d="M172.7226 612.9592 L177.7226 600.9592 L172.7226 603.9592 L167.7226 600.9592 Z" clip-path="url(#clipPath2)" stroke="none"/>
      <path fill="none" d="M172.7226 646.9841 L172.7226 655.7759" clip-path="url(#clipPath2)"/>
      <path d="M172.7226 663.7759 L177.7226 651.7759 L172.7226 654.7759 L167.7226 651.7759 Z" clip-path="url(#clipPath2)" stroke="none"/>
    </g>
    <g fill="rgb(225,225,225)" text-rendering="optimizeQuality" shape-rendering="geometricPrecision" transform="matrix(1,0,0,1,15,-44)" stroke="rgb(225,225,225)">
      <rect x="51.4726" y="717.7656" clip-path="url(#clipPath2)" width="244.5" rx="4" ry="4" height="139.4609" stroke="none"/>
      <rect x="51.4726" y="717.7656" clip-path="url(#clipPath2)" fill="rgb(235,235,235)" width="244.5" height="21.4609" stroke="none"/>
    </g>
    <g font-size="15" stroke-linecap="butt" transform="matrix(1,0,0,1,15,-44)" text-rendering="optimizeQuality" font-family="sans-serif" shape-rendering="geometricPrecision" stroke-miterlimit="1.45">
      <text x="246.8852" xml:space="preserve" y="733.689" clip-path="url(#clipPath2)" stroke="none">Merge</text>
      <rect x="51.4726" y="717.7656" clip-path="url(#clipPath2)" fill="none" width="244.5" stroke-dasharray="6,2" rx="4" ry="4" height="139.4609"/>
    </g>
    <g fill="rgb(255,153,0)" text-rendering="optimizeQuality" shape-rendering="geometricPrecision" transform="matrix(1,0,0,1,15,-44)" stroke="rgb(255,153,0)">
      <path d="M66.4726 817.2944 L278.9726 817.2944 L278.9726 832.2944 Q278.9726 835.2944 275.9726 835.2944 L69.4726 835.2944 Q66.4726 835.2944 66.4726 832.2944 Z" clip-path="url(#clipPath2)" stroke="none"/>
      <path fill="url(#linearGradient10)" d="M66.4726 804.2944 Q66.4726 801.2944 69.4726 801.2944 L275.9726 801.2944 Q278.9726 801.2944 278.9726 804.2944 L278.9726 818.2944 L66.4726 818.2944 Z" clip-path="url(#clipPath2)" stroke="none"/>
      <path fill="none" stroke-width="2" d="M68.4726 804.2944 Q68.4726 803.2944 69.4726 803.2944 L275.9726 803.2944 Q276.9726 803.2944 276.9726 804.2944 L276.9726 832.2944 Q276.9726 833.2944 275.9726 833.2944 L69.4726 833.2944 Q68.4726 833.2944 68.4726 832.2944 Z" clip-path="url(#clipPath2)" stroke="rgb(255,240,217)"/>
      <path fill="none" d="M68.4726 804.2944 Q68.4726 803.2944 69.4726 803.2944 L275.9726 803.2944 Q276.9726 803.2944 276.9726 804.2944 L276.9726 832.2944 Q276.9726 833.2944 275.9726 833.2944 L69.4726 833.2944 Q68.4726 833.2944 68.4726 832.2944 Z" clip-path="url(#clipPath2)"/>
    </g>
    <g text-rendering="optimizeQuality" stroke-miterlimit="1.45" shape-rendering="geometricPrecision" font-family="sans-serif" transform="matrix(1,0,0,1,15,-44)" stroke-linecap="butt">
      <text x="107.5429" xml:space="preserve" y="822.4487" clip-path="url(#clipPath2)" stroke="none">Result and UV to RGB</text>
    </g>
    <g fill="rgb(255,153,0)" text-rendering="optimizeQuality" shape-rendering="geometricPrecision" transform="matrix(1,0,0,1,15,-44)" stroke="rgb(255,153,0)">
      <path d="M66.4726 770.2266 L278.9726 770.2266 L278.9726 785.2266 Q278.9726 788.2266 275.9726 788.2266 L69.4726 788.2266 Q66.4726 788.2266 66.4726 785.2266 Z" clip-path="url(#clipPath2)" stroke="none"/>
      <path fill="url(#linearGradient11)" d="M66.4726 757.2266 Q66.4726 754.2266 69.4726 754.2266 L275.9726 754.2266 Q278.9726 754.2266 278.9726 757.2266 L278.9726 771.2266 L66.4726 771.2266 Z" clip-path="url(#clipPath2)" stroke="none"/>
      <path fill="none" stroke-width="2" d="M68.4726 757.2266 Q68.4726 756.2266 69.4726 756.2266 L275.9726 756.2266 Q276.9726 756.2266 276.9726 757.2266 L276.9726 785.2266 Q276.9726 786.2266 275.9726 786.2266 L69.4726 786.2266 Q68.4726 786.2266 68.4726 785.2266 Z" clip-path="url(#clipPath2)" stroke="rgb(255,240,217)"/>
      <path fill="none" d="M68.4726 757.2266 Q68.4726 756.2266 69.4726 756.2266 L275.9726 756.2266 Q276.9726 756.2266 276.9726 757.2266 L276.9726 785.2266 Q276.9726 786.2266 275.9726 786.2266 L69.4726 786.2266 Q68.4726 786.2266 68.4726 785.2266 Z" clip-path="url(#clipPath2)"/>
    </g>
    <g text-rendering="optimizeQuality" stroke-miterlimit="1.45" shape-rendering="geometricPrecision" font-family="sans-serif" transform="matrix(1,0,0,1,15,-44)" stroke-linecap="butt">
      <text x="111.747" xml:space="preserve" y="775.3809" clip-path="url(#clipPath2)" stroke="none">Image Multiplication</text>
    </g>
    <g text-rendering="optimizeQuality" stroke-miterlimit="1.45" shape-rendering="geometricPrecision" transform="matrix(1,0,0,1,15,-44)" stroke-linecap="butt">
      <path fill="none" d="M79.9971 186.9548 L24.0608 186.9548 L24.0608 819.609 L58.4384 819.609" clip-path="url(#clipPath2)"/>
      <path d="M66.4384 819.609 L54.4384 814.609 L57.4384 819.609 L54.4384 824.609 Z" clip-path="url(#clipPath2)" stroke="none"/>
      <path fill="none" d="M67.4264 373.8151 L35.5225 373.8151 L35.5225 772.61 L58.4575 772.61" clip-path="url(#clipPath2)"/>
      <path d="M66.4575 772.61 L54.4575 767.61 L57.4575 772.61 L54.4575 777.61 Z" clip-path="url(#clipPath2)" stroke="none"/>
      <path fill="none" d="M172.7226 697.7712 L172.7226 746.2615" clip-path="url(#clipPath2)"/>
      <path d="M172.7226 754.2615 L177.7226 742.2615 L172.7226 745.2615 L167.7226 742.2615 Z" clip-path="url(#clipPath2)" stroke="none"/>
      <path fill="none" d="M172.7226 788.1876 L172.7226 793.2711" clip-path="url(#clipPath2)"/>
      <path d="M172.7226 801.2711 L177.7226 789.2711 L172.7226 792.2711 L167.7226 789.2711 Z" clip-path="url(#clipPath2)" stroke="none"/>
    </g>
    <g fill="rgb(245,245,245)" text-rendering="optimizeQuality" shape-rendering="geometricPrecision" transform="matrix(1,0,0,1,15,-44)" stroke="rgb(245,245,245)">
      <rect x="323.5432" y="59.1842" clip-path="url(#clipPath2)" width="227.6173" rx="4" ry="4" height="872.6082" stroke="none"/>
      <rect x="323.5432" y="59.1842" clip-path="url(#clipPath2)" fill="rgb(235,235,235)" width="227.6173" height="21.4609" stroke="none"/>
    </g>
    <g font-size="15" stroke-linecap="butt" transform="matrix(1,0,0,1,15,-44)" text-rendering="optimizeQuality" font-family="sans-serif" shape-rendering="geometricPrecision" stroke-miterlimit="1.45">
      <text x="518.6625" xml:space="preserve" y="75.1075" clip-path="url(#clipPath2)" stroke="none">CPU</text>
      <rect x="323.5432" y="59.1842" clip-path="url(#clipPath2)" fill="none" width="227.6173" stroke-dasharray="6,2" rx="4" ry="4" height="872.6082"/>
    </g>
    <g fill="rgb(255,153,0)" text-rendering="optimizeQuality" shape-rendering="geometricPrecision" transform="matrix(1,0,0,1,15,-44)" stroke="rgb(255,153,0)">
      <path d="M339.5432 109.6451 L527.0432 109.6451 L527.0432 122.6451 Q527.0432 125.6451 524.0432 125.6451 L342.5432 125.6451 Q339.5432 125.6451 339.5432 122.6451 Z" clip-path="url(#clipPath2)" stroke="none"/>
      <path fill="url(#linearGradient12)" d="M339.5432 98.6451 Q339.5432 95.6451 342.5432 95.6451 L524.0432 95.6451 Q527.0432 95.6451 527.0432 98.6451 L527.0432 110.6451 L339.5432 110.6451 Z" clip-path="url(#clipPath2)" stroke="none"/>
      <path fill="none" stroke-width="2" d="M341.5432 98.6451 Q341.5432 97.6451 342.5432 97.6451 L524.0432 97.6451 Q525.0432 97.6451 525.0432 98.6451 L525.0432 122.6451 Q525.0432 123.6451 524.0432 123.6451 L342.5432 123.6451 Q341.5432 123.6451 341.5432 122.6451 Z" clip-path="url(#clipPath2)" stroke="rgb(255,240,217)"/>
      <path fill="none" d="M341.5432 98.6451 Q341.5432 97.6451 342.5432 97.6451 L524.0432 97.6451 Q525.0432 97.6451 525.0432 98.6451 L525.0432 122.6451 Q525.0432 123.6451 524.0432 123.6451 L342.5432 123.6451 Q341.5432 123.6451 341.5432 122.6451 Z" clip-path="url(#clipPath2)"/>
    </g>
    <g text-rendering="optimizeQuality" stroke-miterlimit="1.45" shape-rendering="geometricPrecision" font-family="sans-serif" transform="matrix(1,0,0,1,15,-44)" stroke-linecap="butt">
      <text x="403.0588" xml:space="preserve" y="114.7994" clip-path="url(#clipPath2)" stroke="none">Load JPEG</text>
    </g>
    <g fill="rgb(255,153,0)" text-rendering="optimizeQuality" shape-rendering="geometricPrecision" transform="matrix(1,0,0,1,15,-44)" stroke="rgb(255,153,0)">
      <path d="M339.5432 541.2819 L527.0432 541.2819 L527.0432 554.2819 Q527.0432 557.2819 524.0432 557.2819 L342.5432 557.2819 Q339.5432 557.2819 339.5432 554.2819 Z" clip-path="url(#clipPath2)" stroke="none"/>
      <path fill="url(#linearGradient13)" d="M339.5432 530.2819 Q339.5432 527.2819 342.5432 527.2819 L524.0432 527.2819 Q527.0432 527.2819 527.0432 530.2819 L527.0432 542.2819 L339.5432 542.2819 Z" clip-path="url(#clipPath2)" stroke="none"/>
      <path fill="none" stroke-width="2" d="M341.5432 530.2819 Q341.5432 529.2819 342.5432 529.2819 L524.0432 529.2819 Q525.0432 529.2819 525.0432 530.2819 L525.0432 554.2819 Q525.0432 555.2819 524.0432 555.2819 L342.5432 555.2819 Q341.5432 555.2819 341.5432 554.2819 Z" clip-path="url(#clipPath2)" stroke="rgb(255,240,217)"/>
      <path fill="none" d="M341.5432 530.2819 Q341.5432 529.2819 342.5432 529.2819 L524.0432 529.2819 Q525.0432 529.2819 525.0432 530.2819 L525.0432 554.2819 Q525.0432 555.2819 524.0432 555.2819 L342.5432 555.2819 Q341.5432 555.2819 341.5432 554.2819 Z" clip-path="url(#clipPath2)"/>
    </g>
    <g text-rendering="optimizeQuality" stroke-miterlimit="1.45" shape-rendering="geometricPrecision" font-family="sans-serif" transform="matrix(1,0,0,1,15,-44)" stroke-linecap="butt">
      <text x="374.0139" xml:space="preserve" y="546.4362" clip-path="url(#clipPath2)" stroke="none">Load Pencil Texture</text>
    </g>
    <g fill="rgb(255,153,0)" text-rendering="optimizeQuality" shape-rendering="geometricPrecision" transform="matrix(1,0,0,1,15,-44)" stroke="rgb(255,153,0)">
      <path d="M339.5432 598.3498 L527.0432 598.3498 L527.0432 611.3498 Q527.0432 614.3498 524.0432 614.3498 L342.5432 614.3498 Q339.5432 614.3498 339.5432 611.3498 Z" clip-path="url(#clipPath2)" stroke="none"/>
      <path fill="url(#linearGradient14)" d="M339.5432 587.3498 Q339.5432 584.3498 342.5432 584.3498 L524.0432 584.3498 Q527.0432 584.3498 527.0432 587.3498 L527.0432 599.3498 L339.5432 599.3498 Z" clip-path="url(#clipPath2)" stroke="none"/>
      <path fill="none" stroke-width="2" d="M341.5432 587.3498 Q341.5432 586.3498 342.5432 586.3498 L524.0432 586.3498 Q525.0432 586.3498 525.0432 587.3498 L525.0432 611.3498 Q525.0432 612.3498 524.0432 612.3498 L342.5432 612.3498 Q341.5432 612.3498 341.5432 611.3498 Z" clip-path="url(#clipPath2)" stroke="rgb(255,240,217)"/>
      <path fill="none" d="M341.5432 587.3498 Q341.5432 586.3498 342.5432 586.3498 L524.0432 586.3498 Q525.0432 586.3498 525.0432 587.3498 L525.0432 611.3498 Q525.0432 612.3498 524.0432 612.3498 L342.5432 612.3498 Q341.5432 612.3498 341.5432 611.3498 Z" clip-path="url(#clipPath2)"/>
    </g>
    <g text-rendering="optimizeQuality" stroke-miterlimit="1.45" shape-rendering="geometricPrecision" font-family="sans-serif" transform="matrix(1,0,0,1,15,-44)" stroke-linecap="butt">
      <text x="367.387" xml:space="preserve" y="603.5041" clip-path="url(#clipPath2)" stroke="none">Expand Pencil texture</text>
    </g>
    <g fill="rgb(255,153,0)" text-rendering="optimizeQuality" shape-rendering="geometricPrecision" transform="matrix(1,0,0,1,15,-44)" stroke="rgb(255,153,0)">
      <path d="M339.5432 419.3047 L527.0432 419.3047 L527.0432 432.3047 Q527.0432 435.3047 524.0432 435.3047 L342.5432 435.3047 Q339.5432 435.3047 339.5432 432.3047 Z" clip-path="url(#clipPath2)" stroke="none"/>
      <path fill="url(#linearGradient15)" d="M339.5432 408.3047 Q339.5432 405.3047 342.5432 405.3047 L524.0432 405.3047 Q527.0432 405.3047 527.0432 408.3047 L527.0432 420.3047 L339.5432 420.3047 Z" clip-path="url(#clipPath2)" stroke="none"/>
      <path fill="none" stroke-width="2" d="M341.5432 408.3047 Q341.5432 407.3047 342.5432 407.3047 L524.0432 407.3047 Q525.0432 407.3047 525.0432 408.3047 L525.0432 432.3047 Q525.0432 433.3047 524.0432 433.3047 L342.5432 433.3047 Q341.5432 433.3047 341.5432 432.3047 Z" clip-path="url(#clipPath2)" stroke="rgb(255,240,217)"/>
      <path fill="none" d="M341.5432 408.3047 Q341.5432 407.3047 342.5432 407.3047 L524.0432 407.3047 Q525.0432 407.3047 525.0432 408.3047 L525.0432 432.3047 Q525.0432 433.3047 524.0432 433.3047 L342.5432 433.3047 Q341.5432 433.3047 341.5432 432.3047 Z" clip-path="url(#clipPath2)"/>
    </g>
    <g text-rendering="optimizeQuality" stroke-miterlimit="1.45" shape-rendering="geometricPrecision" font-family="sans-serif" transform="matrix(1,0,0,1,15,-44)" stroke-linecap="butt">
      <text x="351.3323" xml:space="preserve" y="424.459" clip-path="url(#clipPath2)" stroke="none">Compute Target Histogram</text>
    </g>
    <g fill="rgb(255,153,0)" text-rendering="optimizeQuality" shape-rendering="geometricPrecision" transform="matrix(1,0,0,1,15,-44)" stroke="rgb(255,153,0)">
      <path d="M348.6605 900.7924 L536.1605 900.7924 L536.1605 913.7924 Q536.1605 916.7924 533.1605 916.7924 L351.6605 916.7924 Q348.6605 916.7924 348.6605 913.7924 Z" clip-path="url(#clipPath2)" stroke="none"/>
      <path fill="url(#linearGradient16)" d="M348.6605 889.7924 Q348.6605 886.7924 351.6605 886.7924 L533.1605 886.7924 Q536.1605 886.7924 536.1605 889.7924 L536.1605 901.7924 L348.6605 901.7924 Z" clip-path="url(#clipPath2)" stroke="none"/>
      <path fill="none" stroke-width="2" d="M350.6605 889.7924 Q350.6605 888.7924 351.6605 888.7924 L533.1605 888.7924 Q534.1605 888.7924 534.1605 889.7924 L534.1605 913.7924 Q534.1605 914.7924 533.1605 914.7924 L351.6605 914.7924 Q350.6605 914.7924 350.6605 913.7924 Z" clip-path="url(#clipPath2)" stroke="rgb(255,240,217)"/>
      <path fill="none" d="M350.6605 889.7924 Q350.6605 888.7924 351.6605 888.7924 L533.1605 888.7924 Q534.1605 888.7924 534.1605 889.7924 L534.1605 913.7924 Q534.1605 914.7924 533.1605 914.7924 L351.6605 914.7924 Q350.6605 914.7924 350.6605 913.7924 Z" clip-path="url(#clipPath2)"/>
    </g>
    <g text-rendering="optimizeQuality" stroke-miterlimit="1.45" shape-rendering="geometricPrecision" font-family="sans-serif" transform="matrix(1,0,0,1,15,-44)" stroke-linecap="butt">
      <text x="383.4212" xml:space="preserve" y="905.9467" clip-path="url(#clipPath2)" stroke="none">Save image to JPEG</text>
    </g>
    <g text-rendering="optimizeQuality" stroke-miterlimit="1.45" shape-rendering="geometricPrecision" transform="matrix(1,0,0,1,15,-44)" stroke-linecap="butt">
      <path fill="none" d="M433.2932 125.6796 L433.2932 188.9928 L275.4683 188.9928" clip-path="url(#clipPath2)"/>
      <path d="M267.4683 188.9928 L279.4683 193.9928 L276.4683 188.9928 L279.4683 183.9928 Z" clip-path="url(#clipPath2)" stroke="none"/>
      <path fill="none" d="M433.2932 557.2819 L433.2932 576.3234" clip-path="url(#clipPath2)"/>
      <path d="M433.2932 584.3234 L438.2932 572.3234 L433.2932 575.3234 L428.2932 572.3234 Z" clip-path="url(#clipPath2)" stroke="none"/>
      <path fill="none" d="M433.2932 614.3524 L433.2932 683.0697 L287.0082 683.0697" clip-path="url(#clipPath2)"/>
      <path d="M279.0082 683.0697 L291.0082 688.0697 L288.0082 683.0697 L291.0082 678.0697 Z" clip-path="url(#clipPath2)" stroke="none"/>
      <path fill="none" d="M383.5703 614.331 L383.5703 629.9693 L286.9958 629.9693" clip-path="url(#clipPath2)"/>
      <path d="M278.9958 629.9693 L290.9958 634.9693 L287.9958 629.9693 L290.9958 624.9693 Z" clip-path="url(#clipPath2)" stroke="none"/>
      <path fill="none" d="M433.2932 435.3047 L433.2932 517.7017 L286.9947 517.7017" clip-path="url(#clipPath2)"/>
      <path d="M278.9947 517.7017 L290.9947 522.7017 L287.9947 517.7017 L290.9947 512.7017 Z" clip-path="url(#clipPath2)" stroke="none"/>
      <path fill="none" d="M172.7226 835.2944 L172.7226 900.5502 L340.6848 901.3239" clip-path="url(#clipPath2)"/>
      <path d="M348.6847 901.3607 L336.7079 896.3055 L339.6848 901.3192 L336.6618 906.3054 Z" clip-path="url(#clipPath2)" stroke="none"/>
    </g>
  </g>
</svg>
